<svg width="32" height="32" viewBox="0 0 32 32" fill="none" xmlns="http://www.w3.org/2000/svg">
  <rect width="32" height="32" rx="6" fill="#0a0a0f"/>
  <g transform="translate(3, 4) scale(0.022)">
    <!-- fy logo path approximation -->
    <path d="M180 950V350h120v-80c0-120 60-200 180-200 40 0 80 8 110 20l-30 100c-20-8-40-12-60-12-60 0-80 40-80 100v72h140v100H420v600H180z" fill="white"/>
    <path d="M520 350h120l100 320 20 80h4l20-80 100-320h120L820 850c-40 100-100 150-200 150-40 0-80-8-110-20l30-100c20 8 50 12 70 12 60 0 90-30 110-80l10-30L520 350z" fill="white"/>
  </g>
</svg>
